<svg width="113" height="27" viewBox="0 0 113 27" fill="none" xmlns="http://www.w3.org/2000/svg">
<path d="M0 0.711679V0.0474453V0H12.1387V0.759124H9.4894L15.7514 18.9781L22.1098 0.759124H19.2197V0H25V0.664234H23.2659L14.3064 26H11.2235L1.7341 0.711679H0Z" fill="#4B862F"/>
<path d="M20.9922 19.5723V26H20.0078V19.5723H20.9922ZM20.9922 17.2344V18.3945H20.0078V17.2344H20.9922ZM24.5664 26.1172C23.9414 26.1172 23.498 25.9492 23.2363 25.6133C22.9785 25.2773 22.8496 24.6934 22.8496 23.8613V17.0762L23.8223 17.0176V23.4746C23.8223 23.7402 23.8242 23.9531 23.8281 24.1133C23.8359 24.2734 23.8516 24.4316 23.875 24.5879C23.8984 24.7402 23.9297 24.8555 23.9688 24.9336C24.0078 25.0117 24.0645 25.084 24.1387 25.1504C24.2129 25.2129 24.3008 25.2559 24.4023 25.2793C24.5078 25.2988 24.6367 25.3086 24.7891 25.3086C24.9141 25.3086 25.1602 25.2852 25.5273 25.2383L25.5801 26.0176C25.1777 26.084 24.8398 26.1172 24.5664 26.1172ZM27.9062 26.1172C27.2812 26.1172 26.8379 25.9492 26.5762 25.6133C26.3184 25.2773 26.1895 24.6934 26.1895 23.8613V17.0762L27.1621 17.0176V23.4746C27.1621 23.7402 27.1641 23.9531 27.168 24.1133C27.1758 24.2734 27.1914 24.4316 27.2148 24.5879C27.2383 24.7402 27.2695 24.8555 27.3086 24.9336C27.3477 25.0117 27.4043 25.084 27.4785 25.1504C27.5527 25.2129 27.6406 25.2559 27.7422 25.2793C27.8477 25.2988 27.9766 25.3086 28.1289 25.3086C28.2539 25.3086 28.5 25.2852 28.8672 25.2383L28.9199 26.0176C28.5176 26.084 28.1797 26.1172 27.9062 26.1172ZM31.375 25.3438C31.8398 25.3438 32.248 25.2168 32.5996 24.9629C32.9551 24.7051 33.1836 24.3594 33.2852 23.9258V22.8418C33.2656 22.8418 33.1465 22.8516 32.9277 22.8711C32.7129 22.8906 32.5723 22.9023 32.5059 22.9062C31.6582 22.9805 31.0664 23.1191 30.7305 23.3223C30.3984 23.5254 30.2324 23.8516 30.2324 24.3008C30.2324 24.6445 30.334 24.9043 30.5371 25.0801C30.7402 25.2559 31.0195 25.3438 31.375 25.3438ZM33.502 26C33.4434 25.75 33.3867 25.4805 33.332 25.1914C32.9766 25.5469 32.6426 25.793 32.3301 25.9297C32.0176 26.0664 31.6504 26.1348 31.2285 26.1348C30.627 26.1348 30.1426 25.9785 29.7754 25.666C29.4121 25.3496 29.2305 24.8965 29.2305 24.3066C29.2305 23.6504 29.4785 23.1641 29.9746 22.8477C30.4746 22.5312 31.1934 22.334 32.1309 22.2559C32.2598 22.2441 32.4531 22.2285 32.7109 22.209C32.9727 22.1855 33.168 22.168 33.2969 22.1562V21.5879C33.2969 21.1348 33.1914 20.7988 32.9805 20.5801C32.7695 20.3613 32.4375 20.252 31.9844 20.252C31.3516 20.252 30.7129 20.4082 30.0684 20.7207C30.0488 20.6738 29.998 20.5391 29.916 20.3164C29.834 20.0898 29.791 19.9727 29.7871 19.9648C30.0723 19.8047 30.4102 19.6777 30.8008 19.584C31.1953 19.4863 31.5957 19.4375 32.002 19.4375C32.8027 19.4375 33.3789 19.6133 33.7305 19.9648C34.0859 20.3125 34.2637 20.9062 34.2637 21.7461V26H33.502ZM37.8672 26.1348C37.4297 26.1348 37.0254 26.0879 36.6543 25.9941C36.2871 25.9004 35.9883 25.7793 35.7578 25.6309L35.8809 24.8047C36.5332 25.1523 37.1738 25.3262 37.8027 25.3262C38.7559 25.3262 39.2461 24.9902 39.2734 24.3184C39.2734 24.0332 39.1719 23.8086 38.9688 23.6445C38.7656 23.4805 38.3672 23.2969 37.7734 23.0938L37.2871 22.9238C36.7246 22.7363 36.3223 22.5039 36.0801 22.2266C35.8418 21.9492 35.7207 21.6035 35.7168 21.1895C35.7168 20.6855 35.918 20.2676 36.3203 19.9355C36.7266 19.6035 37.2812 19.4375 37.9844 19.4375C38.7109 19.4375 39.373 19.5781 39.9707 19.8594L39.6836 20.6094C39.0781 20.3594 38.5117 20.2344 37.9844 20.2344C37.5742 20.2344 37.252 20.3164 37.0176 20.4805C36.7871 20.6406 36.6719 20.8672 36.6719 21.1602C36.6719 21.4102 36.7559 21.6016 36.9238 21.7344C37.0918 21.8672 37.4277 22.0195 37.9316 22.1914C38.0605 22.2383 38.2227 22.293 38.418 22.3555C39.0664 22.5664 39.5254 22.8164 39.7949 23.1055C40.0645 23.3906 40.1992 23.7773 40.1992 24.2656C40.1914 24.8594 39.9785 25.3203 39.5605 25.6484C39.1426 25.9727 38.5781 26.1348 37.8672 26.1348ZM46.2695 26.1172C45.6445 26.1172 45.2012 25.9492 44.9395 25.6133C44.6816 25.2773 44.5527 24.6934 44.5527 23.8613V17.0762L45.5254 17.0176V23.4746C45.5254 23.7402 45.5273 23.9531 45.5312 24.1133C45.5391 24.2734 45.5547 24.4316 45.5781 24.5879C45.6016 24.7402 45.6328 24.8555 45.6719 24.9336C45.7109 25.0117 45.7676 25.084 45.8418 25.1504C45.916 25.2129 46.0039 25.2559 46.1055 25.2793C46.2109 25.2988 46.3398 25.3086 46.4922 25.3086C46.6172 25.3086 46.8633 25.2852 47.2305 25.2383L47.2832 26.0176C46.8809 26.084 46.543 26.1172 46.2695 26.1172ZM49.7383 25.3438C50.2031 25.3438 50.6113 25.2168 50.9629 24.9629C51.3184 24.7051 51.5469 24.3594 51.6484 23.9258V22.8418C51.6289 22.8418 51.5098 22.8516 51.291 22.8711C51.0762 22.8906 50.9355 22.9023 50.8691 22.9062C50.0215 22.9805 49.4297 23.1191 49.0938 23.3223C48.7617 23.5254 48.5957 23.8516 48.5957 24.3008C48.5957 24.6445 48.6973 24.9043 48.9004 25.0801C49.1035 25.2559 49.3828 25.3438 49.7383 25.3438ZM51.8652 26C51.8066 25.75 51.75 25.4805 51.6953 25.1914C51.3398 25.5469 51.0059 25.793 50.6934 25.9297C50.3809 26.0664 50.0137 26.1348 49.5918 26.1348C48.9902 26.1348 48.5059 25.9785 48.1387 25.666C47.7754 25.3496 47.5938 24.8965 47.5938 24.3066C47.5938 23.6504 47.8418 23.1641 48.3379 22.8477C48.8379 22.5312 49.5566 22.334 50.4941 22.2559C50.623 22.2441 50.8164 22.2285 51.0742 22.209C51.3359 22.1855 51.5312 22.168 51.6602 22.1562V21.5879C51.6602 21.1348 51.5547 20.7988 51.3438 20.5801C51.1328 20.3613 50.8008 20.252 50.3477 20.252C49.7148 20.252 49.0762 20.4082 48.4316 20.7207C48.4121 20.6738 48.3613 20.5391 48.2793 20.3164C48.1973 20.0898 48.1543 19.9727 48.1504 19.9648C48.4355 19.8047 48.7734 19.6777 49.1641 19.584C49.5586 19.4863 49.959 19.4375 50.3652 19.4375C51.166 19.4375 51.7422 19.6133 52.0938 19.9648C52.4492 20.3125 52.627 20.9062 52.627 21.7461V26H51.8652ZM61.6445 26V22.1152C61.6445 21.4707 61.541 21.002 61.334 20.709C61.1309 20.416 60.7734 20.2695 60.2617 20.2695C59.7695 20.2695 59.3535 20.3926 59.0137 20.6387C58.6777 20.8848 58.459 21.2031 58.3574 21.5938C58.3223 21.8867 58.3047 22.2129 58.3047 22.5723V26H57.3262V17.0762L58.3047 17.0176V19.6309C58.3047 19.8535 58.2969 20.1289 58.2812 20.457C58.832 19.7773 59.5625 19.4375 60.4727 19.4375C61.9062 19.4375 62.623 20.2793 62.623 21.9629V26H61.6445ZM65.6875 25.3438C66.1523 25.3438 66.5605 25.2168 66.9121 24.9629C67.2676 24.7051 67.4961 24.3594 67.5977 23.9258V22.8418C67.5781 22.8418 67.459 22.8516 67.2402 22.8711C67.0254 22.8906 66.8848 22.9023 66.8184 22.9062C65.9707 22.9805 65.3789 23.1191 65.043 23.3223C64.7109 23.5254 64.5449 23.8516 64.5449 24.3008C64.5449 24.6445 64.6465 24.9043 64.8496 25.0801C65.0527 25.2559 65.332 25.3438 65.6875 25.3438ZM67.8145 26C67.7559 25.75 67.6992 25.4805 67.6445 25.1914C67.2891 25.5469 66.9551 25.793 66.6426 25.9297C66.3301 26.0664 65.9629 26.1348 65.541 26.1348C64.9395 26.1348 64.4551 25.9785 64.0879 25.666C63.7246 25.3496 63.543 24.8965 63.543 24.3066C63.543 23.6504 63.791 23.1641 64.2871 22.8477C64.7871 22.5312 65.5059 22.334 66.4434 22.2559C66.5723 22.2441 66.7656 22.2285 67.0234 22.209C67.2852 22.1855 67.4805 22.168 67.6094 22.1562V21.5879C67.6094 21.1348 67.5039 20.7988 67.293 20.5801C67.082 20.3613 66.75 20.252 66.2969 20.252C65.6641 20.252 65.0254 20.4082 64.3809 20.7207C64.3613 20.6738 64.3105 20.5391 64.2285 20.3164C64.1465 20.0898 64.1035 19.9727 64.0996 19.9648C64.3848 19.8047 64.7227 19.6777 65.1133 19.584C65.5078 19.4863 65.9082 19.4375 66.3145 19.4375C67.1152 19.4375 67.6914 19.6133 68.043 19.9648C68.3984 20.3125 68.5762 20.9062 68.5762 21.7461V26H67.8145ZM72.9824 26.1348C72.0371 26.1348 71.2969 25.8281 70.7617 25.2148C70.2305 24.6016 69.9648 23.7988 69.9648 22.8066C69.9688 21.8066 70.2402 20.9961 70.7793 20.375C71.3223 19.75 72.0645 19.4375 73.0059 19.4375C73.3379 19.4375 73.6582 19.4785 73.9668 19.5605C74.2793 19.6426 74.5254 19.75 74.7051 19.8828L74.4355 20.6445C73.9785 20.3984 73.4961 20.2754 72.9883 20.2754C72.3672 20.2754 71.875 20.502 71.5117 20.9551C71.1523 21.4082 70.9727 22.0273 70.9727 22.8125C70.9727 23.5781 71.1504 24.1855 71.5059 24.6348C71.8652 25.0801 72.3613 25.3027 72.9941 25.3027C73.498 25.3027 74.0137 25.166 74.541 24.8926L74.6641 25.6719C74.2383 25.9805 73.6777 26.1348 72.9824 26.1348ZM77.0898 19.5723V26H76.1055V19.5723H77.0898ZM77.0898 17.2344V18.3945H76.1055V17.2344H77.0898ZM82.6387 20.7617C82.3535 20.418 81.9609 20.2461 81.4609 20.2461C80.9609 20.2461 80.5527 20.4238 80.2363 20.7793C79.9199 21.1309 79.7344 21.6133 79.6797 22.2266H83.0723C83.0723 21.5898 82.9277 21.1016 82.6387 20.7617ZM81.6543 26.1348C80.7207 26.1348 79.9844 25.8379 79.4453 25.2441C78.9102 24.6504 78.6426 23.8379 78.6426 22.8066C78.6426 21.8105 78.9023 21.0039 79.4219 20.3867C79.9414 19.7656 80.625 19.4492 81.4727 19.4375C82.2695 19.4375 82.9004 19.7109 83.3652 20.2578C83.834 20.8008 84.0684 21.5273 84.0684 22.4375C84.0684 22.4844 84.0664 22.5703 84.0625 22.6953C84.0625 22.8203 84.0625 22.9102 84.0625 22.9648H79.6504C79.6621 23.6953 79.8496 24.2656 80.2129 24.6758C80.5801 25.082 81.0723 25.2852 81.6895 25.2852C82.3691 25.2852 83.0508 25.1055 83.7344 24.7461L83.8867 25.5371C83.2344 25.9355 82.4902 26.1348 81.6543 26.1348ZM85.4277 26V19.5723H86.248L86.3711 20.4922C86.625 20.1758 86.9414 19.9219 87.3203 19.7305C87.7031 19.5352 88.1152 19.4375 88.5566 19.4375C89.2988 19.4375 89.8477 19.6465 90.2031 20.0645C90.5586 20.4785 90.7363 21.1172 90.7363 21.9805V26H89.7578C89.7578 23.4219 89.7559 22.041 89.752 21.8574C89.7363 21.3105 89.625 20.9102 89.418 20.6562C89.2148 20.4023 88.873 20.2754 88.3926 20.2754C87.8887 20.2754 87.4688 20.3965 87.1328 20.6387C86.7969 20.8809 86.5781 21.1953 86.4766 21.582C86.4375 21.8438 86.418 22.1445 86.418 22.4844V26H85.4277ZM94.873 25.291C95.5176 25.291 95.9961 25.084 96.3086 24.6699C96.625 24.2559 96.7832 23.6641 96.7832 22.8945C96.7832 22.0273 96.6309 21.375 96.3262 20.9375C96.0254 20.4961 95.5371 20.2754 94.8613 20.2754C94.5605 20.2754 94.2949 20.3398 94.0645 20.4688C93.834 20.5977 93.6484 20.7773 93.5078 21.0078C93.3672 21.2383 93.2598 21.5039 93.1855 21.8047C93.1152 22.1016 93.0801 22.4277 93.0801 22.7832C93.0801 23.2832 93.1406 23.7168 93.2617 24.084C93.3867 24.4512 93.5859 24.7441 93.8594 24.9629C94.1328 25.1816 94.4707 25.291 94.873 25.291ZM96.8008 25.0684C96.5898 25.3926 96.3086 25.6504 95.957 25.8418C95.6055 26.0332 95.2129 26.1289 94.7793 26.1289C93.9316 26.1289 93.2676 25.8281 92.7871 25.2266C92.3066 24.6211 92.0664 23.7988 92.0664 22.7598C92.0664 21.7676 92.3105 20.9668 92.7988 20.3574C93.2871 19.7441 93.9414 19.4375 94.7617 19.4375C95.1875 19.4375 95.5879 19.5312 95.9629 19.7188C96.3418 19.9023 96.625 20.1504 96.8125 20.4629L96.7949 19.9062V17.0762L97.7617 17.0176V26H96.9297L96.8008 25.0684ZM101.324 25.3438C101.789 25.3438 102.197 25.2168 102.549 24.9629C102.904 24.7051 103.133 24.3594 103.234 23.9258V22.8418C103.215 22.8418 103.096 22.8516 102.877 22.8711C102.662 22.8906 102.521 22.9023 102.455 22.9062C101.607 22.9805 101.016 23.1191 100.68 23.3223C100.348 23.5254 100.182 23.8516 100.182 24.3008C100.182 24.6445 100.283 24.9043 100.486 25.0801C100.689 25.2559 100.969 25.3438 101.324 25.3438ZM103.451 26C103.393 25.75 103.336 25.4805 103.281 25.1914C102.926 25.5469 102.592 25.793 102.279 25.9297C101.967 26.0664 101.6 26.1348 101.178 26.1348C100.576 26.1348 100.092 25.9785 99.7246 25.666C99.3613 25.3496 99.1797 24.8965 99.1797 24.3066C99.1797 23.6504 99.4277 23.1641 99.9238 22.8477C100.424 22.5312 101.143 22.334 102.08 22.2559C102.209 22.2441 102.402 22.2285 102.66 22.209C102.922 22.1855 103.117 22.168 103.246 22.1562V21.5879C103.246 21.1348 103.141 20.7988 102.93 20.5801C102.719 20.3613 102.387 20.252 101.934 20.252C101.301 20.252 100.662 20.4082 100.018 20.7207C99.998 20.6738 99.9473 20.5391 99.8652 20.3164C99.7832 20.0898 99.7402 19.9727 99.7363 19.9648C100.021 19.8047 100.359 19.6777 100.75 19.584C101.145 19.4863 101.545 19.4375 101.951 19.4375C102.752 19.4375 103.328 19.6133 103.68 19.9648C104.035 20.3125 104.213 20.9062 104.213 21.7461V26H103.451Z" fill="#4B862F"/>
<path d="M27.8333 3.8999H112V25.9999H11" stroke="#4B862F"/>
<path d="M27.5098 7.8V0" stroke="#4B862F"/>
</svg>
